The Frontier Boys 2012 DvDRip XviD Ac3 Feel-Free

Genre:Action | Adventure | Family
Language:English
IMDb:http://www.imdb.com/title/tt1613056/
Source:ISO HK INC Thanks!
Encoder:Tony

Format : AVI
Format/Info : Audio Video Interleave
File size : 1.31 GiB
Duration : 1h 52mn
Overall bit rate : 1 676 Kbps

Video
ID : 0
Format : MPEG-4 Visual
Format profile : Advanced Simple@L5
Format settings, BVOP : 1
Format settings, QPel : No
Format settings, GMC : No warppoints
Format settings, Matrix : Default (H.263)
Codec ID : XVID
Codec ID/Hint : XviD
Duration : 1h 52mn
Bit rate : 1 219 Kbps
Width : 640 pixels
Height : 272 pixels
Display aspect ratio : 2.35:1
Frame rate : 23.976 fps
Color space : YUV
Chroma subsampling : 4:2:0
Bit depth : 8 bits
Scan type : Progressive
Compression mode : Lossy
Bits/(Pixel*Frame) : 0.292
Stream size : 977 MiB (73%)
Writing library : XviD 1.2.1 (UTC 2008-12-04)

Audio
ID : 1
Format : AC-3
Format/Info : Audio Coding 3
Mode extension : CM (complete main)
Codec ID : 2000
Duration : 1h 52mn
Bit rate mode : Constant
Bit rate : 448 Kbps
Channel(s) : 6 channels
Channel positions : Front: L C R, Side: L R, LFE
Sampling rate : 48.0 KHz
Bit depth : 16 bits
Compression mode : Lossy
Stream size : 359 MiB (27%)
Alignment : Aligned on interleaves
Interleave, duration : 42 ms (1.00 video frame)
Interleave, preload duration : 512 ms


Plot:
The story of four high school boys whose undefeated basketball season and friendship are threatened after a drive-by shooting leaves one of them in a coma and one of them with a secret..


Poster:

 
http://i.imgur.com/ohfvA.jpg


Screens:

 
http://i.imgur.com/Cjlvi.png

 
http://i.imgur.com/vHUu7.png

 
http://i.imgur.com/b84y8.png


ENJOY!